HIERARCHY
ROOT joint_0
{
	OFFSET 0.000000 0.000000 0.000000
	CHANNELS 6 Xposition Yposition Zposition Zrotation Yrotation Xrotation 
	JOINT joint_1
	{
		OFFSET 6.579712 -2.778931 100.531982
		CHANNELS 3 Zrotation Yrotation Xrotation
		JOINT joint_2
		{
			OFFSET -3.313232 -1.302856 91.974976
			CHANNELS 3 Zrotation Yrotation Xrotation
			JOINT joint_3
			{
				OFFSET -3.421509 -1.641846 91.864014
				CHANNELS 3 Zrotation Yrotation Xrotation
				JOINT joint_4
				{
					OFFSET 7.697388 -4.642578 123.278931
					CHANNELS 3 Zrotation Yrotation Xrotation
					JOINT joint_5
					{
						OFFSET 24.842529 -5.941528 79.695068
						CHANNELS 3 Zrotation Yrotation Xrotation
						End Site
						{
							OFFSET 0.000000 0.000000 0.000000
						}
					}
				}
				JOINT joint_6
				{
					OFFSET -0.159668 -29.112976 68.364014
					CHANNELS 3 Zrotation Yrotation Xrotation
					JOINT joint_7
					{
						OFFSET -18.356079 -115.987061 -20.069092
						CHANNELS 3 Zrotation Yrotation Xrotation
						JOINT joint_8
						{
							OFFSET 31.719482 -11.733276 -267.170898
							CHANNELS 3 Zrotation Yrotation Xrotation
							JOINT joint_9
							{
								OFFSET 29.329956 -5.879517 -234.654053
								CHANNELS 3 Zrotation Yrotation Xrotation
								End Site
								{
									OFFSET 0.000000 0.000000 0.000000
								}
							}
						}
					}
				}
				JOINT joint_10
				{
					OFFSET 8.802979 23.897949 69.798950
					CHANNELS 3 Zrotation Yrotation Xrotation
					JOINT joint_11
					{
						OFFSET 21.159058 115.524292 -19.981934
						CHANNELS 3 Zrotation Yrotation Xrotation
						JOINT joint_12
						{
							OFFSET 18.809204 5.403442 -268.593018
							CHANNELS 3 Zrotation Yrotation Xrotation
							JOINT joint_13
							{
								OFFSET 20.807861 0.421265 -235.639038
								CHANNELS 3 Zrotation Yrotation Xrotation
								End Site
								{
									OFFSET 0.000000 0.000000 0.000000
								}
							}
						}
					}
				}
			}
		}
	}
	JOINT joint_14
	{
		OFFSET -9.713379 -79.513916 -99.348022
		CHANNELS 3 Zrotation Yrotation Xrotation
		JOINT joint_15
		{
			OFFSET -40.607788 -6.518372 -502.938019
			CHANNELS 3 Zrotation Yrotation Xrotation
			JOINT joint_16
			{
				OFFSET -19.807617 -7.437378 -399.590012
				CHANNELS 3 Zrotation Yrotation Xrotation
				JOINT joint_17
				{
					OFFSET 171.701660 -44.751282 -77.782000
					CHANNELS 3 Zrotation Yrotation Xrotation
					End Site
					{
						OFFSET 0.000000 0.000000 0.000000
					}
				}
			}
		}
	}
	JOINT joint_18
	{
		OFFSET 17.854858 79.618652 -98.128052
		CHANNELS 3 Zrotation Yrotation Xrotation
		JOINT joint_19
		{
			OFFSET -24.848877 16.861816 -503.722992
			CHANNELS 3 Zrotation Yrotation Xrotation
			JOINT joint_20
			{
				OFFSET -30.162476 14.470093 -398.750008
				CHANNELS 3 Zrotation Yrotation Xrotation
				JOINT joint_21
				{
					OFFSET 176.096680 -10.987549 -80.021000
					CHANNELS 3 Zrotation Yrotation Xrotation
					End Site
					{
						OFFSET 0.000000 0.000000 0.000000
					}
				}
			}
		}
	}
}
MOTION
Frames: 12
Frame Time: 0.016667
-1137.915649 959.392395 1098.662964 40.206852 0.902818 -0.820155 -0.022357 -1.893842 0.548160 0.066069 0.297097 -0.137957 0.061131 -0.394761 0.062129 0.827311 0.879172 -3.154994 0.000000 0.000000 0.000000 -0.437514 1.882120 -0.610805 0.105713 1.760041 -0.109009 0.006515 -0.812974 -0.620797 0.000000 0.000000 0.000000 0.201543 0.340716 1.525716 -0.455052 0.832100 -1.595839 -0.155836 -2.041941 2.893430 0.000000 0.000000 0.000000 3.930101 -1.680119 0.518485 4.016556 0.598827 0.408897 4.113763 -1.707526 1.430180 0.000000 0.000000 0.000000 -5.572917 -0.337053 0.466101 -5.489230 0.059616 -0.814845 -5.395903 -0.942087 -2.509093 0.000000 0.000000 0.000000 
-1137.898926 959.448059 1098.659058 40.204043 0.902116 -0.824027 -0.021989 -1.894992 0.537699 0.066794 0.296894 -0.136595 0.061763 -0.395475 0.060799 0.825520 0.895523 -3.142706 0.000000 0.000000 0.000000 -0.442308 1.885105 -0.597415 0.106926 1.763305 -0.103473 0.006906 -0.817055 -0.622359 0.000000 0.000000 0.000000 0.202131 0.346146 1.523932 -0.462211 0.844377 -1.640991 -0.159241 -2.064829 2.908750 0.000000 0.000000 0.000000 3.930552 -1.677718 0.520056 4.016724 0.600459 0.411077 4.114392 -1.709333 1.430007 0.000000 0.000000 0.000000 -5.571883 -0.333852 0.466430 -5.488235 0.062480 -0.812123 -5.395080 -0.945819 -2.508951 0.000000 0.000000 0.000000 
-1137.876343 959.498230 1098.655029 40.203114 0.902207 -0.827120 -0.021096 -1.897994 0.524962 0.068255 0.297038 -0.133424 0.063068 -0.395922 0.058919 0.823319 0.909112 -3.129313 0.000000 0.000000 0.000000 -0.447467 1.887827 -0.583551 0.107868 1.766561 -0.099074 0.006982 -0.819432 -0.624588 0.000000 0.000000 0.000000 0.200107 0.351356 1.521011 -0.468916 0.856028 -1.682341 -0.162557 -2.086295 2.921120 0.000000 0.000000 0.000000 3.930364 -1.675739 0.521366 4.016290 0.601870 0.412987 4.114394 -1.711449 1.429465 0.000000 0.000000 0.000000 -5.571613 -0.331549 0.467017 -5.487951 0.064879 -0.810353 -5.394965 -0.949300 -2.509112 0.000000 0.000000 0.000000 
-1137.839600 959.546021 1098.649048 40.204292 0.902689 -0.829640 -0.019951 -1.904965 0.510890 0.070302 0.298830 -0.129976 0.064915 -0.397705 0.056716 0.820533 0.918359 -3.114335 0.000000 0.000000 0.000000 -0.450998 1.891786 -0.569956 0.108825 1.771244 -0.093969 0.006455 -0.819557 -0.629420 0.000000 0.000000 0.000000 0.197306 0.357130 1.517414 -0.474795 0.867142 -1.717357 -0.165719 -2.105236 2.927328 0.000000 0.000000 0.000000 3.929625 -1.672945 0.523354 4.015403 0.602416 0.413612 4.113735 -1.714298 1.428432 0.000000 0.000000 0.000000 -5.572074 -0.328768 0.468489 -5.488314 0.066070 -0.809944 -5.395477 -0.952746 -2.509553 0.000000 0.000000 0.000000 
-1137.797729 959.589050 1098.642944 40.206387 0.903734 -0.831821 -0.017782 -1.913160 0.496648 0.073438 0.300656 -0.126990 0.067849 -0.399837 0.054360 0.817358 0.925245 -3.098147 0.000000 0.000000 0.000000 -0.454618 1.895771 -0.555518 0.109535 1.776270 -0.089776 0.005483 -0.817663 -0.635672 0.000000 0.000000 0.000000 0.192313 0.362780 1.512445 -0.480027 0.877498 -1.747808 -0.168694 -2.122032 2.929893 0.000000 0.000000 0.000000 3.928443 -1.670628 0.525409 4.014113 0.603138 0.414224 4.112710 -1.717919 1.427024 0.000000 0.000000 0.000000 -5.572732 -0.326355 0.470340 -5.488849 0.066528 -0.809980 -5.396120 -0.955736 -2.510025 0.000000 0.000000 0.000000 
-1137.766846 959.623230 1098.636963 40.209796 0.903945 -0.833999 -0.016572 -1.914900 0.485729 0.075072 0.301565 -0.124440 0.069375 -0.400026 0.053182 0.814734 0.927338 -3.085540 0.000000 0.000000 0.000000 -0.454859 1.895858 -0.543469 0.109711 1.778126 -0.088720 0.004760 -0.816515 -0.640549 0.000000 0.000000 0.000000 0.190498 0.365948 1.505178 -0.484511 0.884058 -1.775433 -0.171446 -2.137137 2.931162 0.000000 0.000000 0.000000 3.926905 -1.668446 0.527606 4.012510 0.604654 0.414707 4.111404 -1.721443 1.425512 0.000000 0.000000 0.000000 -5.573998 -0.324359 0.472030 -5.489983 0.067834 -0.809716 -5.397380 -0.958761 -2.510780 0.000000 0.000000 0.000000 
-1137.758423 959.648193 1098.630981 40.212601 0.902536 -0.836659 -0.016872 -1.903619 0.482909 0.073958 0.298870 -0.125231 0.068373 -0.397236 0.053998 0.812928 0.920847 -3.078297 0.000000 0.000000 0.000000 -0.448052 1.889943 -0.534522 0.109203 1.775361 -0.091989 0.004410 -0.817343 -0.644406 0.000000 0.000000 0.000000 0.198046 0.365801 1.492240 -0.487813 0.883964 -1.797854 -0.173930 -2.149920 2.930409 0.000000 0.000000 0.000000 3.925316 -1.666791 0.529750 4.010833 0.607871 0.415922 4.110222 -1.724969 1.424047 0.000000 0.000000 0.000000 -5.574916 -0.322113 0.473105 -5.490846 0.069748 -0.808292 -5.398330 -0.961256 -2.511368 0.000000 0.000000 0.000000 
-1137.761719 959.665100 1098.624023 40.216234 0.900385 -0.839424 -0.017428 -1.885978 0.484795 0.071985 0.295626 -0.128163 0.066648 -0.393138 0.056330 0.811516 0.909187 -3.074046 0.000000 0.000000 0.000000 -0.439419 1.880697 -0.528114 0.108266 1.769605 -0.097947 0.004346 -0.819410 -0.647170 0.000000 0.000000 0.000000 0.208208 0.362925 1.477227 -0.490167 0.879979 -1.817336 -0.176053 -2.160026 2.927706 0.000000 0.000000 0.000000 3.923500 -1.665688 0.531876 4.008960 0.612412 0.417432 4.108993 -1.729302 1.422345 0.000000 0.000000 0.000000 -5.576055 -0.320342 0.473921 -5.491942 0.072473 -0.806323 -5.399521 -0.963609 -2.512056 0.000000 0.000000 0.000000 
-1137.765991 959.666382 1098.620972 40.220517 0.898518 -0.841308 -0.015172 -1.867198 0.483918 0.072867 0.292732 -0.128745 0.067646 -0.389286 0.057001 0.810096 0.897377 -3.070080 0.000000 0.000000 0.000000 -0.440675 1.870205 -0.519054 0.106830 1.761912 -0.106898 0.004384 -0.820837 -0.648305 0.000000 0.000000 0.000000 0.207917 0.358025 1.466950 -0.492293 0.876588 -1.836277 -0.177864 -2.168608 2.926035 0.000000 0.000000 0.000000 3.921316 -1.665866 0.533605 4.006760 0.617915 0.419233 4.107543 -1.733638 1.420534 0.000000 0.000000 0.000000 -5.577326 -0.320464 0.474595 -5.493088 0.077149 -0.804553 -5.400945 -0.966936 -2.512909 0.000000 0.000000 0.000000 
-1137.773193 959.645630 1098.623047 40.226368 0.896968 -0.842615 -0.009124 -1.845096 0.479273 0.077441 0.288593 -0.126914 0.072239 -0.384750 0.056506 0.809033 0.884222 -3.068444 0.000000 0.000000 0.000000 -0.456985 1.857863 -0.505905 0.104763 1.751244 -0.120271 0.004847 -0.823022 -0.646597 0.000000 0.000000 0.000000 0.193655 0.349079 1.464845 -0.494080 0.873961 -1.859556 -0.178827 -2.173330 2.928690 0.000000 0.000000 0.000000 3.918188 -1.668020 0.535600 4.003818 0.624986 0.420874 4.105407 -1.737507 1.418529 0.000000 0.000000 0.000000 -5.579378 -0.323704 0.475293 -5.494895 0.085629 -0.801993 -5.403282 -0.972097 -2.514281 0.000000 0.000000 0.000000 
-1137.780640 959.610046 1098.628052 40.232937 0.895759 -0.843052 -0.000821 -1.822499 0.472621 0.084326 0.285341 -0.123985 0.079081 -0.379609 0.054956 0.808118 0.869749 -3.068005 0.000000 0.000000 0.000000 -0.480746 1.844296 -0.490814 0.102409 1.738777 -0.135740 0.005509 -0.825788 -0.643877 0.000000 0.000000 0.000000 0.171771 0.337738 1.467950 -0.495519 0.871260 -1.882734 -0.179437 -2.176186 2.932126 0.000000 0.000000 0.000000 3.914564 -1.671621 0.537086 4.000414 0.633232 0.423053 4.102972 -1.741484 1.416351 0.000000 0.000000 0.000000 -5.581649 -0.328915 0.475770 -5.496851 0.096207 -0.799347 -5.405933 -0.978163 -2.515848 0.000000 0.000000 0.000000 
-1137.775879 959.571289 1098.633057 40.240468 0.895879 -0.842792 0.007901 -1.806444 0.464874 0.092133 0.282676 -0.120245 0.086766 -0.377057 0.053232 0.807491 0.862606 -3.067584 0.000000 0.000000 0.000000 -0.504942 1.834810 -0.478875 0.100687 1.729016 -0.146333 0.005713 -0.826721 -0.643047 0.000000 0.000000 0.000000 0.150549 0.329587 1.470259 -0.496741 0.869881 -1.897403 -0.180233 -2.179055 2.932642 0.000000 0.000000 0.000000 3.910776 -1.675380 0.538705 3.996931 0.639919 0.424560 4.100259 -1.744760 1.414232 0.000000 0.000000 0.000000 -5.584347 -0.334609 0.476937 -5.499167 0.105155 -0.798186 -5.408890 -0.983454 -2.517502 0.000000 0.000000 0.000000 
